HIERARCHY
ROOT Hips
{
	OFFSET 3.832332 0.400399 5.448776
	CHANNELS 6 Xposition Yposition Zposition Zrotation Yrotation Xrotation 
	JOINT Spine
	{
		OFFSET -0.000009 8.340343 -2.713944
		CHANNELS 3 Zrotation Yrotation Xrotation
		JOINT Spine1
		{
			OFFSET 0.000010 11.909910 -2.100014
			CHANNELS 3 Zrotation Yrotation Xrotation
			JOINT Spine2
			{
				OFFSET -0.000025 12.047699 -1.054089
				CHANNELS 3 Zrotation Yrotation Xrotation
				JOINT Spine3
				{
					OFFSET -0.000066 12.093739 -0.000067
					CHANNELS 3 Zrotation Yrotation Xrotation
					JOINT Neck
					{
						OFFSET 0.000023 15.549122 1.554863
						CHANNELS 3 Zrotation Yrotation Xrotation
						JOINT Neck1
						{
							OFFSET 0.000041 4.687332 0.410073
							CHANNELS 3 Zrotation Yrotation Xrotation
							JOINT Head
							{
								OFFSET 0.000047 4.633830 0.817001
								CHANNELS 3 Zrotation Yrotation Xrotation
								JOINT HeadEnd
								{
									OFFSET 0.000052 9.727650 -0.000050
									CHANNELS 3 Zrotation Yrotation Xrotation
									End Site
									{
										OFFSET 0.000000 0.000000 0.000000
									}
								}
							}
						}
					}
					JOINT RightShoulder
					{
						OFFSET -0.000035 11.106390 6.072628
						CHANNELS 3 Zrotation Yrotation Xrotation
						JOINT RightArm
						{
							OFFSET -19.427929 0.000035 0.000004
							CHANNELS 3 Zrotation Yrotation Xrotation
							JOINT RightForeArm
							{
								OFFSET -29.350671 -0.000010 -0.000073
								CHANNELS 3 Zrotation Yrotation Xrotation
								JOINT RightHand
								{
									OFFSET -27.018071 -0.000036 -0.000012
									CHANNELS 3 Zrotation Yrotation Xrotation
									JOINT RightHandMiddle1
									{
										OFFSET -9.244051 0.000000 -0.000001
										CHANNELS 3 Zrotation Yrotation Xrotation
										JOINT RightHandMiddle2
										{
											OFFSET -4.870020 -0.000008 0.000026
											CHANNELS 3 Zrotation Yrotation Xrotation
											JOINT RightHandMiddle3
											{
												OFFSET -3.169037 -0.000014 0.000003
												CHANNELS 3 Zrotation Yrotation Xrotation
												JOINT RightHandMiddle4
												{
													OFFSET -1.888381 0.000007 -0.000015
													CHANNELS 3 Zrotation Yrotation Xrotation
													End Site
													{
														OFFSET 0.000000 0.000000 0.000000
													}
												}
											}
										}
									}
									JOINT RightHandRing
									{
										OFFSET -0.250002 -0.249980 -0.956503
										CHANNELS 3 Zrotation Yrotation Xrotation
										JOINT RightHandRing1
										{
											OFFSET -8.140194 0.000019 -0.734581
											CHANNELS 3 Zrotation Yrotation Xrotation
											JOINT RightHandRing2
											{
												OFFSET -4.501553 0.000010 -0.406273
												CHANNELS 3 Zrotation Yrotation Xrotation
												JOINT RightHandRing3
												{
													OFFSET -3.068869 -0.000006 -0.276942
													CHANNELS 3 Zrotation Yrotation Xrotation
													JOINT RightHandRing4
													{
														OFFSET -1.869938 0.000025 -0.168758
														CHANNELS 3 Zrotation Yrotation Xrotation
														End Site
														{
															OFFSET 0.000000 0.000000 0.000000
														}
													}
												}
											}
										}
										JOINT RightHandPinky
										{
											OFFSET -0.163019 -0.250022 -0.975119
											CHANNELS 3 Zrotation Yrotation Xrotation
											JOINT RightHandPinky1
											{
												OFFSET -6.681480 0.000026 -1.494065
												CHANNELS 3 Zrotation Yrotation Xrotation
												JOINT RightHandPinky2
												{
													OFFSET -3.580926 0.000026 -0.800775
													CHANNELS 3 Zrotation Yrotation Xrotation
													JOINT RightHandPinky3
													{
														OFFSET -2.276492 0.000001 -0.509068
														CHANNELS 3 Zrotation Yrotation Xrotation
														JOINT RightHandPinky4
														{
															OFFSET -1.690366 0.000016 -0.378010
															CHANNELS 3 Zrotation Yrotation Xrotation
															End Site
															{
																OFFSET 0.000000 0.000000 0.000000
															}
														}
													}
												}
											}
										}
									}
									JOINT RightHandIndex
									{
										OFFSET -0.250016 -0.250014 0.956511
										CHANNELS 3 Zrotation Yrotation Xrotation
										JOINT RightHandIndex1
										{
											OFFSET -8.934118 0.000004 0.806257
											CHANNELS 3 Zrotation Yrotation Xrotation
											JOINT RightHandIndex2
											{
												OFFSET -4.694692 0.000047 0.423669
												CHANNELS 3 Zrotation Yrotation Xrotation
												JOINT RightHandIndex3
												{
													OFFSET -2.811744 -0.000009 0.253747
													CHANNELS 3 Zrotation Yrotation Xrotation
													JOINT RightHandIndex4
													{
														OFFSET -1.709962 -0.000025 0.154323
														CHANNELS 3 Zrotation Yrotation Xrotation
														End Site
														{
															OFFSET 0.000000 0.000000 0.000000
														}
													}
												}
											}
										}
										JOINT RightHandThumb1
										{
											OFFSET -0.163046 -0.750029 0.975114
											CHANNELS 3 Zrotation Yrotation Xrotation
											JOINT RightHandThumb2
											{
												OFFSET -5.411670 0.835524 2.244712
												CHANNELS 3 Zrotation Yrotation Xrotation
												JOINT RightHandThumb3
												{
													OFFSET -3.567166 0.550748 1.479636
													CHANNELS 3 Zrotation Yrotation Xrotation
													JOINT RightHandThumb4
													{
														OFFSET -2.150557 0.332009 0.892035
														CHANNELS 3 Zrotation Yrotation Xrotation
														End Site
														{
															OFFSET 0.000000 0.000000 0.000000
														}
													}
												}
											}
										}
									}
								}
							}
						}
					}
					JOINT LeftShoulder
					{
						OFFSET -0.000018 11.106412 6.072623
						CHANNELS 3 Zrotation Yrotation Xrotation
						JOINT LeftArm
						{
							OFFSET 19.427871 -0.000068 -0.000040
							CHANNELS 3 Zrotation Yrotation Xrotation
							JOINT LeftForeArm
							{
								OFFSET 29.350712 0.000017 0.000021
								CHANNELS 3 Zrotation Yrotation Xrotation
								JOINT LeftHand
								{
									OFFSET 27.018138 -0.000008 -0.000074
									CHANNELS 3 Zrotation Yrotation Xrotation
									JOINT LeftHandMiddle1
									{
										OFFSET 9.402689 -0.000010 -0.000016
										CHANNELS 3 Zrotation Yrotation Xrotation
										JOINT LeftHandMiddle2
										{
											OFFSET 4.950083 0.000011 0.000019
											CHANNELS 3 Zrotation Yrotation Xrotation
											JOINT LeftHandMiddle3
											{
												OFFSET 3.211960 -0.000002 -0.000043
												CHANNELS 3 Zrotation Yrotation Xrotation
												JOINT LeftHandMiddle4
												{
													OFFSET 1.927575 -0.000011 -0.000038
													CHANNELS 3 Zrotation Yrotation Xrotation
													End Site
													{
														OFFSET 0.000000 0.000000 0.000000
													}
												}
											}
										}
									}
									JOINT LeftHandRing
									{
										OFFSET 0.249979 -0.249998 -0.906159
										CHANNELS 3 Zrotation Yrotation Xrotation
										JOINT LeftHandRing1
										{
											OFFSET 8.286072 0.000050 -0.747778
											CHANNELS 3 Zrotation Yrotation Xrotation
											JOINT LeftHandRing2
											{
												OFFSET 4.585440 0.000010 -0.413797
												CHANNELS 3 Zrotation Yrotation Xrotation
												JOINT LeftHandRing3
												{
													OFFSET 3.124419 0.000024 -0.281967
													CHANNELS 3 Zrotation Yrotation Xrotation
													JOINT LeftHandRing4
													{
														OFFSET 1.908792 -0.000030 -0.172237
														CHANNELS 3 Zrotation Yrotation Xrotation
														End Site
														{
															OFFSET 0.000000 0.000000 0.000000
														}
													}
												}
											}
										}
										JOINT LeftHandPinky
										{
											OFFSET 0.167545 -0.250012 -0.924976
											CHANNELS 3 Zrotation Yrotation Xrotation
											JOINT LeftHandPinky1
											{
												OFFSET 6.823497 0.000013 -1.525882
												CHANNELS 3 Zrotation Yrotation Xrotation
												JOINT LeftHandPinky2
												{
													OFFSET 3.642854 0.000002 -0.814610
													CHANNELS 3 Zrotation Yrotation Xrotation
													JOINT LeftHandPinky3
													{
														OFFSET 2.333105 -0.000030 -0.521739
														CHANNELS 3 Zrotation Yrotation Xrotation
														JOINT LeftHandPinky4
														{
															OFFSET 1.725455 -0.000002 -0.385861
															CHANNELS 3 Zrotation Yrotation Xrotation
															End Site
															{
																OFFSET 0.000000 0.000000 0.000000
															}
														}
													}
												}
											}
										}
									}
									JOINT LeftHandIndex
									{
										OFFSET 0.250015 -0.249999 0.906173
										CHANNELS 3 Zrotation Yrotation Xrotation
										JOINT LeftHandIndex1
										{
											OFFSET 9.087999 -0.000006 0.820135
											CHANNELS 3 Zrotation Yrotation Xrotation
											JOINT LeftHandIndex2
											{
												OFFSET 4.776538 0.000020 0.431070
												CHANNELS 3 Zrotation Yrotation Xrotation
												JOINT LeftHandIndex3
												{
													OFFSET 2.865146 0.000015 0.258586
													CHANNELS 3 Zrotation Yrotation Xrotation
													JOINT LeftHandIndex4
													{
														OFFSET 1.745470 -0.000002 0.157525
														CHANNELS 3 Zrotation Yrotation Xrotation
														End Site
														{
															OFFSET 0.000000 0.000000 0.000000
														}
													}
												}
											}
										}
										JOINT LeftHandThumb1
										{
											OFFSET 0.167531 -0.749991 0.924986
											CHANNELS 3 Zrotation Yrotation Xrotation
											JOINT LeftHandThumb2
											{
												OFFSET 5.551431 0.857138 2.302677
												CHANNELS 3 Zrotation Yrotation Xrotation
												JOINT LeftHandThumb3
												{
													OFFSET 3.625626 0.559771 1.503876
													CHANNELS 3 Zrotation Yrotation Xrotation
													JOINT LeftHandThumb4
													{
														OFFSET 2.195231 0.338951 0.910569
														CHANNELS 3 Zrotation Yrotation Xrotation
														End Site
														{
															OFFSET 0.000000 0.000000 0.000000
														}
													}
												}
											}
										}
									}
								}
							}
						}
					}
				}
			}
		}
	}
	JOINT RightUpLeg
	{
		OFFSET -8.786527 0.000011 0.000013
		CHANNELS 3 Zrotation Yrotation Xrotation
		JOINT RightLeg
		{
			OFFSET -0.000077 -42.170407 0.000000
			CHANNELS 3 Zrotation Yrotation Xrotation
			JOINT RightFoot
			{
				OFFSET 0.000041 -45.949171 -0.000068
				CHANNELS 3 Zrotation Yrotation Xrotation
				JOINT RightForeFoot
				{
					OFFSET -0.000008 -4.685814 0.000035
					CHANNELS 3 Zrotation Yrotation Xrotation
					JOINT RightToeBase
					{
						OFFSET -0.000000 -0.000005 18.351058
						CHANNELS 3 Zrotation Yrotation Xrotation
						JOINT RightToeBaseEnd
						{
							OFFSET 0.000105 -0.000041 6.416884
							CHANNELS 3 Zrotation Yrotation Xrotation
							End Site
							{
								OFFSET 0.000000 0.000000 0.000000
							}
						}
					}
				}
			}
		}
	}
	JOINT LeftUpLeg
	{
		OFFSET 8.786530 0.000016 -0.000013
		CHANNELS 3 Zrotation Yrotation Xrotation
		JOINT LeftLeg
		{
			OFFSET -0.000031 -42.170466 0.000028
			CHANNELS 3 Zrotation Yrotation Xrotation
			JOINT LeftFoot
			{
				OFFSET 0.000017 -45.949189 -0.000037
				CHANNELS 3 Zrotation Yrotation Xrotation
				JOINT LeftForeFoot
				{
					OFFSET 0.000033 -4.685803 -0.000058
					CHANNELS 3 Zrotation Yrotation Xrotation
					JOINT LeftToeBase
					{
						OFFSET 0.000046 -0.000041 18.351089
						CHANNELS 3 Zrotation Yrotation Xrotation
						JOINT LeftToeBaseEnd
						{
							OFFSET 0.000049 0.000031 7.522056
							CHANNELS 3 Zrotation Yrotation Xrotation
							End Site
							{
								OFFSET 0.000000 0.000000 0.000000
							}
						}
					}
				}
			}
		}
	}
}
MOTION
Frames: 4
Frame Time: 0.066667
-8.140083 0.006670 15.555551 -8.029001 22.273436 -1.152341 9.982701 -1.273077 3.460735 -0.274817 -0.144360 -2.444972 -0.086511 0.771372 -1.066309 1.344865 0.855708 9.203998 5.542234 -0.638890 6.824385 -7.548433 3.923412 0.476712 -4.864607 1.117366 1.699461 -0.000577 -0.004112 -0.001970 6.712275 -12.281093 -1.450765 71.570435 16.504690 3.165413 179.995834 66.219604 141.887680 -19.942335 -4.639736 -0.023903 23.804222 -9.269308 -0.002200 36.524200 -0.000241 -0.001621 18.112980 0.002874 0.004206 -0.002904 -0.001281 -0.004475 -1.425065 -1.710805 -5.087765 27.030909 -7.147189 -2.340880 49.712379 1.825953 -3.947738 14.843972 0.178513 -1.326694 0.001012 -0.000333 -0.001035 -1.851431 -4.341650 -4.196783 18.687908 0.775835 -4.152256 47.667015 4.235170 -9.513747 33.931717 2.192641 -7.171293 0.000259 -0.000866 -0.002037 1.134236 7.220016 0.247740 21.542219 -13.381337 1.986038 28.777939 -0.649376 2.490354 18.949804 -0.276299 1.679886 0.000230 0.001109 -0.001576 13.337682 -5.632833 53.493229 0.909244 6.093387 1.406655 -2.512277 1.495895 -0.876095 -0.001316 0.000219 -0.000329 -10.002638 7.694804 -1.354574 -65.320107 -13.234246 2.584543 179.998337 -64.252266 142.453323 14.784642 13.000656 -0.036514 -26.914755 4.081635 -0.001652 -50.126530 -0.001266 0.000458 -25.424362 0.000702 0.000327 0.001383 0.000929 -0.001392 -0.564003 1.792090 -10.725427 -23.006573 3.762672 -2.013361 -56.390285 -2.323429 -4.311780 -14.650005 -0.165888 -1.306691 -0.000833 0.001551 0.002227 -0.078087 1.784624 -5.129706 -9.303389 5.676028 -2.040405 -44.403564 -3.687400 -9.007409 -29.664289 -1.686097 -6.355063 0.001254 0.000517 -0.000524 -0.328619 -6.830392 -4.449769 -24.025040 15.092689 2.245668 -41.666866 1.283300 3.441186 -20.345091 0.315588 1.800680 0.000434 0.001044 0.001519 -14.120440 7.512662 52.229263 -2.371215 6.283797 0.069402 0.000000 0.000000 0.000000 -0.001803 -0.001547 0.000573 6.074657 -0.474970 4.083379 -0.000874 0.001443 3.961226 0.000000 0.000000 -0.000000 -0.000000 0.000000 -0.000000 -0.000000 0.000000 0.000000 0.000000 0.000000 0.000000 17.170757 -6.962719 -0.106666 0.000205 0.000466 3.998886 -0.000000 -0.000000 -0.000000 0.000000 -0.000000 0.000000 0.000000 -0.000000 0.000000 -0.000000 0.000000 0.000000 
-7.574469 0.057692 15.528830 -7.959711 21.990503 -1.079221 9.743151 -1.247764 3.624252 -0.278159 -0.131722 -2.426617 -0.132863 0.842841 -1.015090 1.281259 0.860425 9.285207 5.654924 -0.784762 7.016803 -7.593605 3.708012 0.468309 -4.854561 1.102317 1.624128 -0.000129 -0.003956 -0.001652 6.588834 -12.156161 -1.411037 72.492676 17.401901 1.709548 179.994507 67.351685 139.284454 -21.678818 -3.772775 -0.022868 24.188894 -9.238681 -0.002101 36.992355 -0.000118 -0.001519 18.037174 0.002893 0.004153 -0.002773 -0.001384 -0.004627 -1.392458 -1.676697 -5.014516 26.979584 -7.115765 -2.337111 50.104652 1.854337 -3.970301 14.684952 0.174746 -1.312562 0.000841 -0.000452 -0.001258 -1.814474 -4.205337 -4.201527 18.415253 0.664321 -4.093039 47.537216 4.214981 -9.494579 34.287861 2.237614 -7.238090 0.000058 -0.000978 -0.002003 1.211124 7.175924 0.216665 22.064028 -13.522968 2.030691 29.061794 -0.663588 2.512993 18.557426 -0.264459 1.646290 0.000245 0.001182 -0.001408 13.453099 -6.507269 53.579540 -0.174575 6.470983 1.051085 -3.685954 2.253228 -1.223365 -0.001261 0.000421 -0.000229 -9.986395 7.657427 -1.349892 -65.666985 -13.720602 0.690987 179.998047 -65.534370 139.789841 17.571102 13.036981 -0.055856 -26.957262 4.089767 -0.001549 -50.058838 -0.001175 0.000542 -25.368181 0.000704 0.000555 0.001486 0.000785 -0.001345 -0.563597 1.794427 -10.677898 -22.964636 3.739708 -2.009890 -56.278744 -2.313700 -4.306240 -14.595126 -0.164809 -1.302041 -0.000828 0.001688 0.002007 -0.090381 1.750389 -5.174297 -9.229401 5.791878 -2.024821 -44.216621 -3.657455 -8.976986 -29.633764 -1.681512 -6.348833 0.001242 0.000397 -0.000605 -0.332971 -6.819943 -4.418108 -24.082691 15.102548 2.250869 -41.734489 1.286737 3.446319 -20.242313 0.312215 1.791646 0.000230 0.000794 0.001643 -14.088613 7.633870 52.289371 -2.429401 6.259972 0.092597 0.000000 0.000000 0.000000 -0.001776 -0.001591 0.000452 5.668293 -0.377712 3.901735 -0.000949 0.001404 4.248472 0.000000 0.000000 -0.000000 -0.000000 0.000000 -0.000000 -0.000000 0.000000 0.000000 0.000000 0.000000 0.000000 16.699026 -6.899670 -0.039444 0.000193 0.000716 4.059545 -0.000000 -0.000000 -0.000000 0.000000 -0.000000 -0.000000 0.000000 -0.000000 0.000000 -0.000000 0.000000 0.000000 
-7.100964 0.100071 15.508944 -7.834549 21.631306 -0.931738 9.471033 -1.216429 3.796720 -0.282033 -0.120586 -2.407232 -0.179328 0.885521 -0.965520 1.217707 0.858006 9.375124 5.697351 -0.831426 7.123361 -7.626665 3.602240 0.423067 -4.858224 1.096651 1.563226 0.000439 -0.003535 -0.001252 6.534263 -12.144694 -1.397541 73.259033 17.348528 1.117965 179.993149 68.862587 136.952423 -23.247927 -3.278481 -0.021663 24.660212 -9.182680 -0.001532 37.388058 -0.000115 -0.001151 18.062056 0.002783 0.004108 -0.002512 -0.001402 -0.004564 -1.377020 -1.661831 -4.978074 27.174448 -7.058363 -2.353198 50.380848 1.875514 -3.986427 14.651327 0.173651 -1.309228 0.000635 -0.000565 -0.001453 -1.803739 -4.126425 -4.189285 18.375792 0.613619 -4.083881 47.457436 4.202830 -9.483084 34.494415 2.263674 -7.276984 -0.000228 -0.001054 -0.001799 1.256456 7.169234 0.145344 22.532921 -13.679744 2.071958 29.417589 -0.681226 2.541502 18.383280 -0.259435 1.631427 0.000296 0.001268 -0.001105 13.468955 -6.963432 53.630943 -0.940633 6.704368 0.789701 -4.358178 2.688393 -1.421202 -0.001117 0.000566 -0.000060 -10.016496 7.701659 -1.367711 -65.792702 -13.525764 -0.367193 179.997971 -66.881943 137.614227 20.397436 13.430587 -0.065389 -26.894667 4.129602 -0.001563 -50.033871 -0.001039 0.000661 -25.320284 0.000686 0.000789 0.001522 0.000649 -0.001295 -0.560576 1.805430 -10.632604 -22.862741 3.717968 -2.001584 -56.202297 -2.307641 -4.302059 -14.546475 -0.163877 -1.297969 -0.000880 0.001660 0.001568 -0.097532 1.731954 -5.210035 -9.092532 5.916555 -1.995773 -44.093380 -3.637784 -8.956680 -29.601580 -1.677246 -6.342300 0.001265 0.000381 -0.000580 -0.336629 -6.816513 -4.378005 -24.054502 15.087453 2.248444 -41.758953 1.287888 3.448412 -20.161680 0.309906 1.784343 0.000094 0.000578 0.001698 -14.089327 7.712780 52.345634 -2.512002 6.219294 0.128264 0.000000 0.000000 0.000000 -0.001771 -0.001482 0.000172 5.228295 -0.312407 3.570003 -0.001049 0.001224 4.579463 0.000000 0.000000 -0.000000 -0.000000 0.000000 -0.000000 -0.000000 0.000000 0.000000 0.000000 0.000000 0.000000 16.152866 -6.873613 0.007341 0.000123 0.000729 4.056481 -0.000000 -0.000000 -0.000000 0.000000 -0.000000 -0.000000 0.000000 -0.000000 0.000000 -0.000000 0.000000 0.000000 
-6.631505 0.139383 15.527934 -7.684181 21.161644 -0.706058 9.190372 -1.183428 3.932622 -0.284765 -0.111290 -2.395347 -0.222985 0.894231 -0.917755 1.157731 0.848582 9.460958 5.653536 -0.790463 7.138246 -7.658907 3.602895 0.340122 -4.874259 1.099727 1.512611 0.001012 -0.003001 -0.000982 6.559447 -12.226795 -1.410817 73.749001 16.416697 1.301476 179.991699 70.512489 134.878342 -24.477856 -3.058804 -0.021318 25.255087 -9.093191 -0.000572 37.765526 -0.000232 -0.000598 18.250671 0.002594 0.004073 -0.002247 -0.001380 -0.004285 -1.375566 -1.658183 -4.990017 27.637192 -6.952055 -2.390633 50.557407 1.889487 -3.997006 14.813464 0.177311 -1.322944 0.000475 -0.000611 -0.001608 -1.821325 -4.096349 -4.188384 18.546104 0.630291 -4.119638 47.547169 4.216830 -9.497180 34.629963 2.280007 -7.302310 -0.000534 -0.001096 -0.001426 1.251210 7.189022 0.020360 22.952972 -13.825483 2.109845 29.799698 -0.700234 2.572216 18.452509 -0.261715 1.637498 0.000310 0.001246 -0.000618 13.346685 -6.987904 53.639599 -1.378558 6.688485 0.607910 -4.435084 2.743038 -1.442428 -0.001027 0.000668 0.000123 -10.107793 7.800596 -1.404702 -65.656982 -12.760980 -0.661972 179.997589 -68.161034 136.187759 22.892864 14.023271 -0.064815 -26.784281 4.205978 -0.001601 -50.056797 -0.000982 0.000758 -25.275574 0.000701 0.000863 0.001466 0.000596 -0.001278 -0.548737 1.817212 -10.566019 -22.770538 3.718291 -1.994270 -56.187031 -2.308919 -4.300451 -14.497485 -0.162921 -1.293864 -0.000982 0.001534 0.001029 -0.099350 1.723678 -5.228763 -8.955107 6.021699 -1.966784 -44.015709 -3.628424 -8.944417 -29.601130 -1.676116 -6.342015 0.001390 0.000356 -0.000459 -0.344677 -6.813414 -4.302173 -23.996071 15.040390 2.242764 -41.742184 1.287775 3.447685 -20.117754 0.309055 1.780201 -0.000024 0.000410 0.001641 -14.120793 7.782804 52.416637 -2.624852 6.131343 0.182326 0.000000 0.000000 0.000000 -0.001749 -0.001183 -0.000127 4.734815 -0.140633 3.124467 -0.001017 0.001011 4.976902 0.000000 0.000000 -0.000000 -0.000000 0.000000 -0.000000 -0.000000 0.000000 0.000000 0.000000 0.000000 0.000000 15.552819 -6.854720 0.086021 -0.000148 0.000510 4.034852 -0.000000 -0.000000 -0.000000 0.000000 -0.000000 -0.000000 0.000000 -0.000000 0.000000 -0.000000 0.000000 0.000000 
